HIERARCHY
ROOT Hips
{
	OFFSET -20.575302 -32.078365 87.152718
	CHANNELS 6 Xposition Yposition Zposition Zrotation Yrotation Xrotation
	JOINT Spine
	{
		OFFSET 0.000000 2.080107 8.814247
		CHANNELS 6 Xposition Yposition Zposition Zrotation Yrotation Xrotation
		JOINT Spine1
		{
			OFFSET 0.000000 0.000000 8.844139
			CHANNELS 6 Xposition Yposition Zposition Zrotation Yrotation Xrotation
			JOINT Spine2
			{
				OFFSET 0.000000 0.000002 11.682266
				CHANNELS 6 Xposition Yposition Zposition Zrotation Yrotation Xrotation
				JOINT Spine3
				{
					OFFSET 0.000000 0.000000 11.746696
					CHANNELS 6 Xposition Yposition Zposition Zrotation Yrotation Xrotation
					JOINT Neck
					{
						OFFSET 0.000000 0.000002 17.658264
						CHANNELS 6 Xposition Yposition Zposition Zrotation Yrotation Xrotation
						JOINT Neck1
						{
							OFFSET 0.000000 0.000000 5.101517
							CHANNELS 6 Xposition Yposition Zposition Zrotation Yrotation Xrotation
							JOINT Head
							{
								OFFSET 0.000000 0.000000 5.101517
								CHANNELS 6 Xposition Yposition Zposition Zrotation Yrotation Xrotation
								JOINT HeadEnd
								{
									OFFSET 0.000000 0.000002 11.655090
									CHANNELS 6 Xposition Yposition Zposition Zrotation Yrotation Xrotation
									End Site
									{
										OFFSET 0.000000 0.000000 0.100006
									}
								}
							}
						}
					}
					JOINT RightShoulder
					{
						OFFSET -2.625389 0.000002 11.175217
						CHANNELS 6 Xposition Yposition Zposition Zrotation Yrotation Xrotation
						JOINT RightArm
						{
							OFFSET 0.000000 0.000000 10.434723
							CHANNELS 6 Xposition Yposition Zposition Zrotation Yrotation Xrotation
							JOINT RightForeArm
							{
								OFFSET 0.000000 0.000002 29.628418
								CHANNELS 6 Xposition Yposition Zposition Zrotation Yrotation Xrotation
								JOINT RightHand
								{
									OFFSET 0.000000 0.000002 22.857605
									CHANNELS 6 Xposition Yposition Zposition Zrotation Yrotation Xrotation
									JOINT RightHandThumb1
									{
										OFFSET -2.867323 -2.944292 3.959564
										CHANNELS 6 Xposition Yposition Zposition Zrotation Yrotation Xrotation
										JOINT RightHandThumb2
										{
											OFFSET 0.000000 0.000000 3.350403
											CHANNELS 6 Xposition Yposition Zposition Zrotation Yrotation Xrotation
											JOINT RightHandThumb3
											{
												OFFSET 0.000000 0.000000 3.756516
												CHANNELS 6 Xposition Yposition Zposition Zrotation Yrotation Xrotation
												JOINT RightHandThumb4
												{
													OFFSET 0.000000 0.000000 3.147339
													CHANNELS 6 Xposition Yposition Zposition Zrotation Yrotation Xrotation
													End Site
													{
														OFFSET 0.000000 0.000000 0.100006
													}
												}
											}
										}
									}
									JOINT RightHandIndex1
									{
										OFFSET -0.086752 -2.345282 10.030899
										CHANNELS 6 Xposition Yposition Zposition Zrotation Yrotation Xrotation
										JOINT RightHandIndex2
										{
											OFFSET 0.000000 0.000000 4.061096
											CHANNELS 6 Xposition Yposition Zposition Zrotation Yrotation Xrotation
											JOINT RightHandIndex3
											{
												OFFSET 0.000000 0.000000 3.248871
												CHANNELS 6 Xposition Yposition Zposition Zrotation Yrotation Xrotation
												JOINT RightHandIndex4
												{
													OFFSET 0.000000 0.000000 2.639709
													CHANNELS 6 Xposition Yposition Zposition Zrotation Yrotation Xrotation
													End Site
													{
														OFFSET 0.000000 0.000000 0.100006
													}
												}
											}
										}
									}
									JOINT RightHandMiddle1
									{
										OFFSET 0.104101 -0.006767 9.502945
										CHANNELS 6 Xposition Yposition Zposition Zrotation Yrotation Xrotation
										JOINT RightHandMiddle2
										{
											OFFSET 0.000000 0.000002 4.568726
											CHANNELS 6 Xposition Yposition Zposition Zrotation Yrotation Xrotation
											JOINT RightHandMiddle3
											{
												OFFSET 0.000000 0.000000 3.654984
												CHANNELS 6 Xposition Yposition Zposition Zrotation Yrotation Xrotation
												JOINT RightHandMiddle4
												{
													OFFSET 0.000000 0.000000 2.741241
													CHANNELS 6 Xposition Yposition Zposition Zrotation Yrotation Xrotation
													End Site
													{
														OFFSET 0.000000 0.000000 0.100006
													}
												}
											}
										}
									}
									JOINT RightHandRing1
									{
										OFFSET 0.086752 2.267443 8.921707
										CHANNELS 6 Xposition Yposition Zposition Zrotation Yrotation Xrotation
										JOINT RightHandRing2
										{
											OFFSET 0.000000 0.000002 4.061096
											CHANNELS 6 Xposition Yposition Zposition Zrotation Yrotation Xrotation
											JOINT RightHandRing3
											{
												OFFSET 0.000000 0.000000 3.654984
												CHANNELS 6 Xposition Yposition Zposition Zrotation Yrotation Xrotation
												JOINT RightHandRing4
												{
													OFFSET 0.000000 0.000000 2.741241
													CHANNELS 6 Xposition Yposition Zposition Zrotation Yrotation Xrotation
													End Site
													{
														OFFSET 0.000000 0.000000 0.100006
													}
												}
											}
										}
									}
									JOINT RightHandPinky1
									{
										OFFSET -0.173504 4.467199 7.976990
										CHANNELS 6 Xposition Yposition Zposition Zrotation Yrotation Xrotation
										JOINT RightHandPinky2
										{
											OFFSET 0.000000 0.000000 3.350403
											CHANNELS 6 Xposition Yposition Zposition Zrotation Yrotation Xrotation
											JOINT RightHandPinky3
											{
												OFFSET 0.000000 0.000002 2.842758
												CHANNELS 6 Xposition Yposition Zposition Zrotation Yrotation Xrotation
												JOINT RightHandPinky4
												{
													OFFSET 0.000000 0.000000 2.639709
													CHANNELS 6 Xposition Yposition Zposition Zrotation Yrotation Xrotation
													End Site
													{
														OFFSET 0.000000 0.000000 0.100006
													}
												}
											}
										}
									}
									JOINT RightForeArmEnd
									{
										OFFSET 0.000000 0.000000 0.000000
										CHANNELS 6 Xposition Yposition Zposition Zrotation Yrotation Xrotation
										End Site
										{
											OFFSET 0.000000 0.000000 0.100006
										}
									}
								}
								JOINT RightArmEnd
								{
									OFFSET 0.000000 0.000000 0.000000
									CHANNELS 6 Xposition Yposition Zposition Zrotation Yrotation Xrotation
									End Site
									{
										OFFSET 0.000000 0.000000 0.100006
									}
								}
							}
						}
					}
					JOINT LeftShoulder
					{
						OFFSET 2.625389 0.000002 11.175217
						CHANNELS 6 Xposition Yposition Zposition Zrotation Yrotation Xrotation
						JOINT LeftArm
						{
							OFFSET 0.000000 0.000000 10.813629
							CHANNELS 6 Xposition Yposition Zposition Zrotation Yrotation Xrotation
							JOINT LeftForeArm
							{
								OFFSET 0.000000 0.000002 28.724777
								CHANNELS 6 Xposition Yposition Zposition Zrotation Yrotation Xrotation
								JOINT LeftHand
								{
									OFFSET 0.644384 0.328873 25.716171
									CHANNELS 6 Xposition Yposition Zposition Zrotation Yrotation Xrotation
									JOINT LeftHandThumb1
									{
										OFFSET 2.867323 -2.944290 3.959564
										CHANNELS 6 Xposition Yposition Zposition Zrotation Yrotation Xrotation
										JOINT LeftHandThumb2
										{
											OFFSET 0.000000 0.000000 3.350403
											CHANNELS 6 Xposition Yposition Zposition Zrotation Yrotation Xrotation
											JOINT LeftHandThumb3
											{
												OFFSET 0.000000 0.000000 3.756516
												CHANNELS 6 Xposition Yposition Zposition Zrotation Yrotation Xrotation
												JOINT LeftHandThumb4
												{
													OFFSET 0.000000 0.000000 3.100006
													CHANNELS 6 Xposition Yposition Zposition Zrotation Yrotation Xrotation
													End Site
													{
														OFFSET 0.000000 0.000000 0.100006
													}
												}
											}
										}
									}
									JOINT LeftHandIndex1
									{
										OFFSET 0.086752 -2.345280 10.030899
										CHANNELS 6 Xposition Yposition Zposition Zrotation Yrotation Xrotation
										JOINT LeftHandIndex2
										{
											OFFSET 0.000000 0.000000 4.061096
											CHANNELS 6 Xposition Yposition Zposition Zrotation Yrotation Xrotation
											JOINT LeftHandIndex3
											{
												OFFSET 0.000000 0.000000 3.248871
												CHANNELS 6 Xposition Yposition Zposition Zrotation Yrotation Xrotation
												JOINT LeftHandIndex4
												{
													OFFSET 0.000000 0.000000 2.639709
													CHANNELS 6 Xposition Yposition Zposition Zrotation Yrotation Xrotation
													End Site
													{
														OFFSET 0.000000 0.000000 0.100006
													}
												}
											}
										}
									}
									JOINT LeftHandMiddle1
									{
										OFFSET -0.104101 -0.006767 9.502945
										CHANNELS 6 Xposition Yposition Zposition Zrotation Yrotation Xrotation
										JOINT LeftHandMiddle2
										{
											OFFSET 0.000000 0.000002 4.568726
											CHANNELS 6 Xposition Yposition Zposition Zrotation Yrotation Xrotation
											JOINT LeftHandMiddle3
											{
												OFFSET 0.000000 0.000000 3.654984
												CHANNELS 6 Xposition Yposition Zposition Zrotation Yrotation Xrotation
												JOINT LeftHandMiddle4
												{
													OFFSET 0.000000 0.000000 2.741241
													CHANNELS 6 Xposition Yposition Zposition Zrotation Yrotation Xrotation
													End Site
													{
														OFFSET 0.000000 0.000000 0.100006
													}
												}
											}
										}
									}
									JOINT LeftHandRing1
									{
										OFFSET -0.086752 2.267443 8.921707
										CHANNELS 6 Xposition Yposition Zposition Zrotation Yrotation Xrotation
										JOINT LeftHandRing2
										{
											OFFSET 0.000000 0.000002 4.061096
											CHANNELS 6 Xposition Yposition Zposition Zrotation Yrotation Xrotation
											JOINT LeftHandRing3
											{
												OFFSET 0.000000 0.000000 3.654984
												CHANNELS 6 Xposition Yposition Zposition Zrotation Yrotation Xrotation
												JOINT LeftHandRing4
												{
													OFFSET 0.000000 0.000000 2.741241
													CHANNELS 6 Xposition Yposition Zposition Zrotation Yrotation Xrotation
													End Site
													{
														OFFSET 0.000000 0.000000 0.100006
													}
												}
											}
										}
									}
									JOINT LeftHandPinky1
									{
										OFFSET 0.173504 4.467199 7.976990
										CHANNELS 6 Xposition Yposition Zposition Zrotation Yrotation Xrotation
										JOINT LeftHandPinky2
										{
											OFFSET 0.000000 0.000002 3.350403
											CHANNELS 6 Xposition Yposition Zposition Zrotation Yrotation Xrotation
											JOINT LeftHandPinky3
											{
												OFFSET 0.000000 0.000000 2.842758
												CHANNELS 6 Xposition Yposition Zposition Zrotation Yrotation Xrotation
												JOINT LeftHandPinky4
												{
													OFFSET 0.000000 0.000000 2.639709
													CHANNELS 6 Xposition Yposition Zposition Zrotation Yrotation Xrotation
													End Site
													{
														OFFSET 0.000000 0.000000 0.100006
													}
												}
											}
										}
									}
									JOINT LeftForeArmEnd
									{
										OFFSET 0.000000 0.000000 0.000000
										CHANNELS 6 Xposition Yposition Zposition Zrotation Yrotation Xrotation
										End Site
										{
											OFFSET 0.000000 0.000000 0.100006
										}
									}
								}
								JOINT LeftArmEnd
								{
									OFFSET 0.000000 0.000000 0.000000
									CHANNELS 6 Xposition Yposition Zposition Zrotation Yrotation Xrotation
									End Site
									{
										OFFSET 0.000000 0.000000 0.100006
									}
								}
							}
						}
					}
				}
			}
		}
	}
	JOINT RightUpLeg
	{
		OFFSET -11.289944 0.000000 0.000000
		CHANNELS 6 Xposition Yposition Zposition Zrotation Yrotation Xrotation
		JOINT RightLeg
		{
			OFFSET 0.000000 -0.000004 -38.200321
			CHANNELS 6 Xposition Yposition Zposition Zrotation Yrotation Xrotation
			JOINT RightFoot
			{
				OFFSET 0.000000 -0.000004 -39.900856
				CHANNELS 6 Xposition Yposition Zposition Zrotation Yrotation Xrotation
				JOINT RightToeBase
				{
					OFFSET 0.000000 -15.261639 0.000001
					CHANNELS 6 Xposition Yposition Zposition Zrotation Yrotation Xrotation
					JOINT RightToeBaseEnd
					{
						OFFSET 0.000000 -7.370708 0.000000
						CHANNELS 6 Xposition Yposition Zposition Zrotation Yrotation Xrotation
						End Site
						{
							OFFSET 0.000000 0.000000 0.100000
						}
					}
				}
				JOINT RightLegEnd
				{
					OFFSET 0.000000 0.000000 0.000000
					CHANNELS 6 Xposition Yposition Zposition Zrotation Yrotation Xrotation
					End Site
					{
						OFFSET 0.000000 0.000000 0.100000
					}
				}
			}
			JOINT RightUpLegEnd
			{
				OFFSET 0.000000 0.000000 0.000000
				CHANNELS 6 Xposition Yposition Zposition Zrotation Yrotation Xrotation
				End Site
				{
					OFFSET 0.000000 0.000000 0.099998
				}
			}
		}
	}
	JOINT LeftUpLeg
	{
		OFFSET 11.315661 0.000000 0.000000
		CHANNELS 6 Xposition Yposition Zposition Zrotation Yrotation Xrotation
		JOINT LeftLeg
		{
			OFFSET 0.000000 -0.000004 -38.200321
			CHANNELS 6 Xposition Yposition Zposition Zrotation Yrotation Xrotation
			JOINT LeftFoot
			{
				OFFSET 0.000000 -0.000004 -39.900856
				CHANNELS 6 Xposition Yposition Zposition Zrotation Yrotation Xrotation
				JOINT LeftToeBase
				{
					OFFSET 0.000000 -15.261639 0.000001
					CHANNELS 6 Xposition Yposition Zposition Zrotation Yrotation Xrotation
					JOINT LeftToeBaseEnd
					{
						OFFSET 0.000000 -7.539997 0.000000
						CHANNELS 6 Xposition Yposition Zposition Zrotation Yrotation Xrotation
						End Site
						{
							OFFSET 0.000000 0.000000 0.100000
						}
					}
				}
				JOINT LeftLegEnd
				{
					OFFSET 0.000000 0.000000 0.000000
					CHANNELS 6 Xposition Yposition Zposition Zrotation Yrotation Xrotation
					End Site
					{
						OFFSET 0.000000 0.000000 0.100000
					}
				}
			}
			JOINT LeftUpLegEnd
			{
				OFFSET 0.000000 0.000000 0.000000
				CHANNELS 6 Xposition Yposition Zposition Zrotation Yrotation Xrotation
				End Site
				{
					OFFSET 0.000000 0.000000 0.099998
				}
			}
		}
	}
}
MOTION
Frames: 2
Frame Time: 0.016667
2.584061 -79.264053 87.306984 53.587936 0.302148 -4.868455 0.000003 2.080107 8.814226 -0.053016 -1.347925 4.797116 -0.000000 -0.000006 8.844148 -0.739910 -2.075393 7.871144 -0.000003 0.000000 11.682272 -6.558453 -3.568996 4.470621 0.000004 0.000003 11.746716 -2.287589 1.199880 -0.209178 0.000000 -0.000003 17.658274 -3.094327 -11.693217 5.453531 0.000002 0.000008 5.101528 -0.577546 5.367344 -10.274006 0.000000 -0.000005 5.101543 2.453303 1.849272 -22.281141 0.000006 0.000001 11.655075 -0.000001 0.000000 0.000001 -2.625395 -0.000003 11.175228 1.079008 -91.843266 -0.501069 0.000014 0.000001 10.434726 -18.845226 -61.656049 1.536772 -0.000004 -0.000001 29.628393 39.336518 -5.517518 38.391370 0.000007 -0.000011 22.857590 -17.462574 25.368122 -13.371024 -2.867327 -2.944294 3.959558 33.272812 -11.458616 61.321718 -0.000004 0.000005 3.350421 -0.293494 0.290511 -0.590540 -0.000003 -0.000008 3.756534 -0.203521 0.202063 -0.409936 0.000002 -0.000014 3.147339 -0.000003 0.000000 0.000001 -0.086768 -2.345279 10.030903 -3.472433 34.503479 9.972942 -0.000005 -0.000008 4.061110 0.794236 -0.000025 -0.451862 -0.000002 0.000004 3.248868 0.574428 -0.000001 -0.438111 0.000005 0.000011 2.639709 0.000000 -0.000000 0.000001 0.104089 -0.006761 9.502954 2.085645 31.778230 6.902318 0.000007 -0.000007 4.568729 0.935998 -0.000005 -0.000390 0.000003 0.000003 3.654970 0.398207 0.000000 -0.001403 0.000007 0.000010 2.741245 0.000001 0.000001 -0.000006 0.086753 2.267453 8.921739 10.997740 29.764134 2.628411 0.000007 -0.000011 4.061079 -1.531467 -0.000103 0.000454 -0.000009 -0.000006 3.655010 -0.414556 -0.000000 -0.000243 -0.000003 -0.000009 2.741257 -0.000000 -0.000000 -0.000000 -0.173510 4.467209 7.976990 19.819995 28.708610 -3.250243 -0.000012 -0.000005 3.350410 -2.183307 -0.000038 0.000292 -0.000006 0.000009 2.842785 -0.153325 0.000007 0.065042 0.000007 -0.000007 2.639710 -0.000002 0.000000 -0.000002 -0.000003 0.000009 -0.000002 0.000004 -0.000001 0.000002 0.000005 -0.000007 -0.000015 0.000001 0.000000 0.000000 2.625408 0.000001 11.175218 -6.259049 89.592916 1.053327 0.000016 -0.000002 10.813627 69.784282 45.617338 51.412712 -0.000007 0.000000 28.724743 -17.392146 2.664071 66.648440 0.644392 0.328891 25.716164 1.984586 -18.763305 6.003762 2.867327 -2.944283 3.959570 -33.272860 11.458610 61.322579 0.000005 -0.000011 3.350429 0.293537 -0.290512 -0.592189 0.000005 0.000003 3.756531 0.203530 -0.202038 -0.409146 -0.000001 -0.000011 3.100005 -0.000000 -0.000002 0.000000 0.086749 -2.345279 10.030906 -14.992738 -27.653926 27.131122 0.000003 0.000006 4.061084 1.323358 -0.000000 0.001005 0.000003 -0.000006 3.248886 0.773528 0.000001 -0.037193 0.000009 0.000005 2.639710 0.000001 -0.000002 -0.000001 -0.104094 -0.006767 9.502948 -8.060340 -22.545068 15.824969 -0.000003 0.000002 4.568743 0.680209 0.039570 0.495344 0.000007 0.000015 3.654994 0.797812 -0.021982 0.419828 0.000004 -0.000009 2.741272 -0.000001 -0.000002 -0.000001 -0.086752 2.267445 8.921741 2.641905 -11.095067 2.853391 0.000003 0.000002 4.061119 -1.403871 0.000067 0.000506 0.000001 -0.000011 3.654969 -0.315680 -0.000002 -0.436790 0.000003 0.000015 2.741241 0.000001 -0.000000 0.000001 0.173506 4.467196 7.976989 12.902271 1.643672 -7.013825 -0.000006 0.000004 3.350409 -2.267804 -0.016924 0.003189 0.000007 0.000005 2.842763 -0.270844 0.026193 0.001560 -0.000002 0.000008 2.639693 0.000000 -0.000001 0.000001 -0.000003 0.000001 0.000033 -0.000000 -0.000002 -0.000005 0.000009 0.000016 -0.000002 -0.000000 -0.000001 0.000004 -11.289947 -0.000015 0.000003 2.694984 -4.184551 3.809630 -0.000008 -0.000014 -38.200329 -0.327712 0.082633 14.230137 -0.000007 0.000007 -39.900848 -10.596846 8.450804 14.234129 -0.000004 -15.261647 -0.000001 -0.838127 0.142978 -28.210459 0.000001 -7.370708 0.000001 -0.000002 0.000001 -0.000000 -0.000007 -0.000011 -0.000000 -0.000001 -0.000003 0.000001 -0.000001 0.000006 0.000001 -0.000001 0.000001 -0.000000 11.315657 -0.000011 0.000002 16.436505 -19.762526 -3.965393 -0.000002 -0.000004 -38.200333 1.979821 -1.240821 32.174822 -0.000003 0.000004 -39.900852 16.445723 2.608795 37.840730 -0.000005 -15.261641 0.000003 -2.610982 7.517305 -40.066624 0.000003 -7.540001 -0.000001 0.000001 -0.000000 -0.000001 -0.000002 -0.000004 0.000000 0.000001 -0.000001 0.000003 0.000001 -0.000002 0.000005 0.000000 0.000001 -0.000001 
2.499805 -79.294685 87.306496 53.563590 0.265473 -4.921584 -0.000005 2.080099 8.814234 -0.059444 -1.407244 4.885045 -0.000004 -0.000000 8.844151 -0.742262 -2.171872 7.857941 -0.000003 0.000007 11.682252 -6.484790 -3.426163 4.430669 -0.000001 0.000000 11.746685 -2.255513 1.173417 -0.188266 -0.000002 -0.000002 17.658253 -3.088876 -11.670308 5.592770 0.000006 0.000000 5.101548 -0.616956 5.341330 -10.158904 -0.000000 -0.000006 5.101510 2.426784 1.836903 -22.224445 0.000010 0.000022 11.655059 0.000000 0.000002 0.000002 -2.625401 -0.000003 11.175199 1.250476 -91.682223 -0.533344 0.000006 0.000001 10.434729 -21.513137 -61.957992 3.919084 -0.000002 -0.000003 29.628408 38.201607 -5.534091 38.030456 -0.000010 0.000004 22.857618 -16.275385 25.523495 -13.274589 -2.867313 -2.944300 3.959588 33.272836 -11.458616 61.321712 0.000002 0.000003 3.350407 -0.293525 0.290492 -0.590530 -0.000005 0.000001 3.756524 -0.203526 0.202068 -0.409942 -0.000001 0.000003 3.147324 0.000001 0.000001 0.000000 -0.086751 -2.345298 10.030911 -3.568690 33.790851 10.017103 -0.000001 0.000015 4.061100 0.795936 -0.000073 -0.450259 -0.000010 -0.000003 3.248904 0.574555 0.000001 -0.436661 -0.000004 0.000011 2.639709 -0.000000 -0.000000 -0.000000 0.104112 -0.006777 9.502970 1.966896 31.192098 6.907961 -0.000004 0.000005 4.568703 0.935760 -0.102782 -0.002064 -0.000000 -0.000010 3.654994 0.398109 0.057121 -0.001010 -0.000012 -0.000001 2.741255 0.000000 0.000000 0.000003 0.086762 2.267433 8.921756 10.862954 29.288893 2.661900 0.000001 -0.000006 4.061091 -1.530373 0.000003 0.000454 0.000011 -0.000022 3.654990 -0.413705 -0.000008 -0.000241 -0.000007 -0.000024 2.741227 -0.000000 0.000000 -0.000002 -0.173500 4.467192 7.977014 19.732160 28.411161 -3.060084 -0.000003 -0.000012 3.350401 -2.183264 -0.016252 0.000912 -0.000006 0.000007 2.842773 -0.153288 0.008809 0.065149 -0.000011 -0.000003 2.639725 -0.000000 0.000000 -0.000001 0.000005 -0.000006 0.000014 -0.000002 -0.000003 0.000001 -0.000001 -0.000002 0.000001 -0.000003 0.000000 -0.000002 2.625387 0.000005 11.175220 -5.750570 89.683567 1.604751 -0.000010 0.000004 10.813630 69.090444 44.271691 51.595167 -0.000005 -0.000012 28.724779 -17.204333 2.621415 66.500074 0.644373 0.328862 25.716190 3.007317 -18.619323 5.902820 2.867317 -2.944295 3.959559 -33.202851 11.604891 61.041230 -0.000001 0.000000 3.350421 0.590014 -0.577988 -1.180906 -0.000001 -0.000001 3.756502 0.408479 -0.402647 -0.821396 -0.000001 0.000005 3.100005 0.000001 -0.000002 0.000001 0.086745 -2.345279 10.030887 -15.073813 -27.867787 26.841860 0.000006 0.000001 4.061098 1.321990 -0.000003 0.001006 0.000008 0.000000 3.248870 0.772245 -0.000003 -0.037167 0.000002 0.000007 2.639710 -0.000000 0.000001 -0.000001 -0.104117 -0.006780 9.502932 -8.113178 -22.767532 15.552284 -0.000003 0.000017 4.568750 0.680755 0.000022 0.496404 0.000005 -0.000002 3.654995 0.796698 0.000008 0.421444 -0.000004 0.000020 2.741241 0.000002 0.000002 0.000002 -0.086762 2.267432 8.921721 2.602444 -11.317938 2.613827 0.000007 0.000004 4.061107 -1.403325 0.000076 0.000504 -0.000007 0.000003 3.654994 -0.315266 -0.000009 -0.435824 0.000002 -0.000015 2.741257 0.000001 -0.000002 -0.000002 0.173497 4.467193 7.976980 12.862846 1.475449 -7.224265 -0.000006 -0.000010 3.350420 -2.268890 0.000007 0.000660 0.000007 0.000004 2.842756 -0.271659 0.000004 0.000772 0.000011 0.000010 2.639709 0.000000 -0.000000 0.000000 -0.000010 -0.000005 -0.000002 0.000000 -0.000002 0.000002 0.000000 -0.000009 -0.000001 0.000001 -0.000001 0.000001 -11.289942 -0.000011 -0.000005 2.730986 -4.207690 3.795171 0.000002 -0.000009 -38.200321 -0.321621 0.081906 14.285140 -0.000008 -0.000001 -39.900856 -10.620843 8.503569 14.223020 -0.000006 -15.261646 0.000002 -0.848869 0.140990 -28.214837 -0.000004 -7.370703 0.000001 -0.000003 0.000001 -0.000001 -0.000009 -0.000012 0.000001 0.000002 -0.000000 0.000002 -0.000007 -0.000002 0.000000 -0.000004 0.000000 -0.000000 11.315656 -0.000010 0.000001 16.349432 -19.791662 -4.025957 -0.000003 -0.000011 -38.200325 1.968534 -1.241145 32.290949 0.000001 0.000002 -39.900856 16.404409 2.600919 38.117606 -0.000001 -15.261644 0.000004 -2.687538 7.640853 -40.241081 -0.000001 -7.540001 0.000002 -0.000000 -0.000001 -0.000000 0.000001 -0.000008 0.000003 0.000001 -0.000003 0.000004 0.000004 -0.000004 0.000000 -0.000001 -0.000000 -0.000000 
